<svg width="39" height="50" viewBox="0 0 39 50" fill="none" xmlns="http://www.w3.org/2000/svg">
<path d="M33.5066 0.577988L38.862 20.521C38.9654 20.907 38.7624 21.3093 38.3914 21.4523C32.8183 23.6152 29.9069 22.8408 26.8265 22.0214L26.825 22.021C25.0788 21.5562 23.2999 21.0616 20.8038 21.0929C20.5143 21.0949 20.1682 21.1073 19.8905 21.1205V15.5167H20.7452V11.1267H22.1503V10.0622H18.0483V11.1267H19.4534V15.5167H19.8623V21.1205C18.0415 21.2158 16.4733 21.5473 15.1146 22.039V15.5545C15.7074 15.5398 16.2177 15.3718 16.6454 15.0505C17.0936 14.7086 17.3932 14.2424 17.5443 13.6519H16.1241C16.0183 13.8798 15.8673 14.0534 15.6708 14.1725C15.4795 14.2916 15.2604 14.3512 15.0136 14.3512C14.6158 14.3512 14.2934 14.2088 14.0467 13.9239C13.7999 13.639 13.6765 13.2582 13.6765 12.7817C13.6765 12.3051 13.7999 11.9244 14.0467 11.6395C14.2934 11.3546 14.6158 11.2121 15.0136 11.2121C15.2604 11.2121 15.4795 11.2717 15.6708 11.3908C15.8673 11.51 16.0183 11.6835 16.1241 11.9114H17.5443C17.3932 11.3209 17.0936 10.8547 16.6454 10.5128C16.1971 10.1709 15.6583 10 15.0287 10C14.515 10 14.0542 10.1191 13.6463 10.3574C13.2434 10.5905 12.9286 10.9194 12.702 11.3442C12.4754 11.7638 12.3621 12.2429 12.3621 12.7817C12.3621 13.3204 12.4754 13.7995 12.702 14.2191C12.9286 14.6387 13.2434 14.9676 13.6463 15.2059C14.0533 15.4385 14.5794 15.555 15.0917 15.5556V22.039C10.6706 23.673 8.4224 27.0407 6.9693 29.3976L12.2375 49.0148C12.3496 49.432 12.1038 49.8609 11.6892 49.9727C11.6215 49.9914 11.5531 50 11.4862 50C11.1431 50 10.8289 49.7703 10.7356 49.4219L0.0240211 9.53504C-0.00631887 9.42176 -0.00553888 9.30848 0.0131311 9.19989C0.0185711 9.16786 0.0349109 9.14051 0.0442409 9.10926C0.0675809 9.0327 0.0963608 8.9616 0.140691 8.89598C0.149251 8.88348 0.150031 8.86707 0.159361 8.85457C3.5336 4.46237 7.6437 0.317831 17.3627 2.02487C19.4594 2.39281 21.4284 2.67153 23.4092 2.63054V10.0622H22.7986V15.5167H24.0904V13.31H25.707V12.2766H24.0904V11.1267H26.2509V10.0622H23.4357V2.62888C26.1176 2.5627 28.9123 1.90607 32.3974 0.0881425C32.6051 -0.0204516 32.8532 -0.0298266 33.0687 0.0662674C33.2841 0.16158 33.4452 0.349862 33.5066 0.577988Z" fill="#FFCB44"/>
</svg>
