<svg width="50" height="50" viewBox="0 0 50 50" fill="none" xmlns="http://www.w3.org/2000/svg">
<path d="M26.3273 19.3912C26.2606 19.4389 26.2272 19.5199 26.2272 19.6342C26.2272 19.7486 26.2653 19.8391 26.3416 19.9059C26.4273 19.963 26.5131 19.9916 26.5989 19.9916C26.637 19.9916 26.699 19.9773 26.7847 19.9487C26.88 19.9106 26.9944 19.8582 27.1278 19.7915C27.2612 19.7248 27.3661 19.6772 27.4423 19.6485C27.3565 19.62 27.2422 19.5723 27.0992 19.5056C26.9563 19.4389 26.8372 19.3912 26.7419 19.3626C26.6561 19.3245 26.5894 19.3055 26.5417 19.3055C26.475 19.3055 26.4035 19.3341 26.3273 19.3912ZM21.9101 37.5174V19.2483C21.9101 18.4287 21.9673 17.6425 22.0817 16.8896C22.196 16.1272 22.3866 15.3839 22.6534 14.6596C22.9298 13.9258 23.2729 13.2968 23.6827 12.7726C24.0925 12.2389 24.6166 11.8101 25.2551 11.486C25.9032 11.162 26.6322 11 27.4423 11C28.0522 11 28.6336 11.0906 29.1863 11.2716C29.7486 11.4432 30.2537 11.6957 30.7016 12.0292C31.1495 12.3628 31.5069 12.8012 31.7737 13.3444C32.0501 13.8781 32.1883 14.4785 32.1883 15.1456C32.1883 17.1564 30.9637 18.6384 28.5145 19.5914C28.848 19.639 29.1863 19.7153 29.5294 19.8201C29.8725 19.9249 30.287 20.1203 30.7731 20.4062C31.2686 20.6921 31.6975 21.0352 32.0597 21.4354C32.4313 21.8357 32.7458 22.3885 33.0031 23.0937C33.2699 23.7989 33.4034 24.5899 33.4034 25.4667C33.4034 26.3053 33.2938 27.1011 33.0746 27.8539C32.8554 28.5973 32.5361 29.2644 32.1168 29.8552C31.707 30.4461 31.1733 30.9178 30.5158 31.2705C29.8677 31.6135 29.1387 31.7851 28.3286 31.7851C27.6615 31.7851 27.0611 31.585 26.5274 31.1847C25.9937 30.7844 25.5839 30.2889 25.298 29.698L25.927 29.2692C26.1939 29.7743 26.5226 30.2031 26.9134 30.5557C27.3136 30.8988 27.7234 31.0703 28.1428 31.0703C28.5811 31.0703 28.9719 30.9417 29.315 30.6844C29.6676 30.4175 29.9439 30.0888 30.1441 29.698C30.3537 29.2978 30.5253 28.8451 30.6587 28.34C30.8017 27.8253 30.897 27.3441 30.9446 26.8962C30.9923 26.4387 31.0161 26.0003 31.0161 25.581C31.0161 25.1045 30.9637 24.5804 30.8589 24.0085C30.7636 23.4367 30.6063 22.8411 30.3871 22.2217C30.1774 21.6022 29.8629 21.0924 29.4436 20.6921C29.0243 20.2823 28.5383 20.0774 27.9855 20.0774C27.8235 20.0774 27.5614 20.1632 27.1993 20.3347C26.8371 20.4967 26.5751 20.5777 26.4131 20.5777C25.8508 20.5777 25.5696 20.2537 25.5696 19.6057C25.5696 19.3579 25.6554 19.1435 25.827 18.9624C25.9985 18.7718 26.1939 18.6765 26.4131 18.6765C26.6323 18.6765 26.9182 18.767 27.2708 18.9481C27.6329 19.1292 27.8902 19.2197 28.0427 19.2197C28.3953 19.2197 28.705 19.0863 28.9719 18.8194C29.2482 18.5431 29.4579 18.2 29.6009 17.7902C29.7438 17.3709 29.8486 16.9611 29.9154 16.5608C29.9821 16.1606 30.0154 15.7841 30.0154 15.4315C30.0154 14.469 29.7486 13.6351 29.2149 12.9298C28.6812 12.2151 27.9951 11.8577 27.1564 11.8577C26.8705 11.8577 26.6037 11.8911 26.3559 11.9578C26.1081 12.0245 25.8412 12.1675 25.5554 12.3866C25.2694 12.6058 25.0217 12.8965 24.812 13.2586C24.6119 13.6208 24.4403 14.1306 24.2974 14.7882C24.1639 15.4458 24.0972 16.2082 24.0973 17.0754V37.1457L22.2389 38.0321L21.9101 37.5174Z" fill="#FFBA44"/>
<path d="M10.8031 23.7526C11.986 23.7527 12.8841 23.5517 13.4973 23.1499C14.1105 22.7481 14.5194 22.2589 14.7238 21.6823C14.9282 21.1058 15.0608 20.1449 15.1217 18.7997C15.1826 17.3059 15.5153 16.1943 16.1198 15.4649C16.7243 14.7355 17.7181 14.3708 19.1011 14.3708V14.8687C18.6053 14.9037 18.2683 15.098 18.09 15.4518C17.9116 15.8056 17.8225 16.5547 17.8225 17.699C17.8225 19.3762 17.6463 20.6712 17.2941 21.5841C16.9418 22.4969 16.2351 23.2373 15.1739 23.8051C14.1127 24.3729 12.6558 24.6786 10.8031 24.7223V28.876C10.8031 29.898 10.8618 30.5597 10.9792 30.8611C11.0966 31.1625 11.3445 31.4049 11.7229 31.5883C12.1013 31.7718 12.6862 31.8635 13.4778 31.8635V32.3483H5.62335V31.8635C6.39748 31.8548 6.97373 31.7696 7.35211 31.608C7.73047 31.4464 7.98271 31.2105 8.10884 30.9004C8.23496 30.5903 8.29802 29.9155 8.29803 28.876V24.7223C6.42792 24.6786 4.97533 24.3772 3.94026 23.8182C2.90518 23.2591 2.2028 22.5275 1.83313 21.6234C1.46346 20.7193 1.27863 19.4068 1.27863 17.6859C1.27863 16.5852 1.19599 15.8536 1.03073 15.4911C0.865464 15.1286 0.521888 14.9211 0 14.8687V14.3708C0.878511 14.3883 1.58741 14.528 2.1267 14.7901C2.66598 15.0522 3.09871 15.5151 3.42489 16.179C3.75107 16.8429 3.93591 17.7165 3.9794 18.7997C4.04028 20.1362 4.16858 21.0927 4.36429 21.6692C4.56 22.2458 4.97098 22.7372 5.59726 23.1433C6.22352 23.5496 7.12377 23.7527 8.29803 23.7526V18.0397C8.29802 17.0176 8.23931 16.3559 8.12189 16.0545C8.00446 15.7532 7.75874 15.5151 7.38472 15.3404C7.0107 15.1657 6.42357 15.074 5.62335 15.0653V14.5804H13.4778V15.0653C12.6775 15.074 12.0904 15.1635 11.7164 15.3339C11.3424 15.5042 11.0966 15.7423 10.9792 16.048C10.8618 16.3537 10.8031 17.0176 10.8031 18.0397V23.7526Z" fill="#FFBA44"/>
<path d="M39.1885 34.0337H36.5169C36.9022 32.8485 37.0949 31.0553 37.0949 28.6541V19.9355C37.0949 17.4724 37.798 15.6483 39.2041 14.4631C40.6102 13.278 42.1622 12.6854 43.8599 12.6854C45.7035 12.6854 47.1877 13.3115 48.3127 14.5636C49.4375 15.8158 50 17.457 50 19.4872C50 21.7029 49.3021 23.6249 47.9064 25.2532C46.5107 26.8815 44.9171 27.6957 43.1256 27.6957C41.9174 27.6957 40.7665 27.3144 39.6728 26.5517V28.5768C39.6728 30.7307 39.5114 32.5497 39.1885 34.0337ZM39.6728 22.9654C39.6728 24.2124 40.0061 25.1631 40.6727 25.8175C41.3393 26.4719 42.1882 26.7991 43.2194 26.7991C44.438 26.7991 45.4561 26.2812 46.2738 25.2455C47.0914 24.2098 47.5002 22.8417 47.5002 21.1412C47.5002 18.9874 46.943 17.2818 45.8285 16.0244C44.714 14.7672 43.4745 14.1385 42.1101 14.1385C41.1831 14.1385 40.5451 14.4245 40.1962 14.9965C39.8473 15.5684 39.6728 16.4985 39.6728 17.7867V22.9654Z" fill="#FFBA44"/>
</svg>
